<?xml version="1.0" encoding="UTF-8" standalone="no"?>
<!DOCTYPE svg PUBLIC "-//W3C//DTD SVG 1.1//EN" "http://www.w3.org/Graphics/SVG/1.1/DTD/svg11.dtd">
<svg width="100%" height="100%" viewBox="0 0 646 179" version="1.1" xmlns="http://www.w3.org/2000/svg" xmlns:xlink="http://www.w3.org/1999/xlink" xml:space="preserve" xmlns:serif="http://www.serif.com/" style="fill-rule:evenodd;clip-rule:evenodd;stroke-linejoin:round;stroke-miterlimit:2;">
    <g transform="matrix(1,0,0,1,-873,-1098)">
        <g id="Artboard1" transform="matrix(1,0,0,0.854433,0,148.15)">
            <rect x="0" y="0" width="2480.32" height="3485.83" style="fill:none;"/>
            <g transform="matrix(1,0,0,1.17037,-2.5033,-1974.84)">
                <path d="M876.794,2723.35L880.054,2748.19C880.061,2748.94 880.399,2749.67 881.038,2750.16L897.851,2762.97C898.791,2763.69 900.104,2763.65 900.999,2762.88L931.033,2736.98L960.095,2759.02L944.935,2772.09C944.92,2772.1 944.905,2772.11 944.89,2772.12L944.875,2772.14L944.849,2772.16L944.824,2772.19L944.814,2772.2L944.792,2772.22C944.779,2772.23 944.766,2772.24 944.753,2772.26L944.731,2772.28L944.71,2772.3L944.691,2772.33L944.669,2772.35L944.652,2772.37L944.633,2772.39L944.614,2772.42C944.31,2772.8 944.117,2773.26 944.07,2773.74C944.052,2773.93 944.057,2774.12 944.08,2774.31L947.35,2799.23C947.357,2799.98 947.696,2800.71 948.334,2801.2L965.148,2814.02C966.088,2814.73 967.401,2814.69 968.296,2813.92L1062.77,2732.44C1063.15,2732.16 1063.45,2731.78 1063.63,2731.34L1063.63,2731.34C1063.82,2730.87 1063.86,2730.35 1063.75,2729.85L1060.51,2705.12C1060.51,2705.12 1060.51,2705.11 1060.51,2705.1C1060.48,2704.35 1060.12,2703.64 1059.52,2703.19L975.393,2639.39C974.453,2638.67 973.143,2638.71 972.25,2639.48L877.629,2721.05C877.057,2721.54 876.739,2722.27 876.762,2723.02C876.766,2723.13 876.776,2723.24 876.794,2723.35ZM966.037,2787.76L968.572,2807.08L1058.65,2729.39L1056.12,2710.11L966.037,2787.76ZM952.214,2797.87L963.444,2806.43L961.039,2788.1L949.816,2779.59L952.214,2797.87ZM965.537,2760.93L950.534,2773.86C950.534,2773.86 963.287,2783.53 963.287,2783.53L1054.04,2705.3L973.983,2644.59C973.983,2644.59 883.234,2722.82 883.234,2722.82C883.234,2722.82 895.988,2732.49 895.988,2732.49L925.983,2706.64C926.876,2705.87 928.186,2705.83 929.126,2706.54L942.876,2716.97L940.796,2695.2C940.774,2694.95 940.784,2694.71 940.831,2694.48C940.93,2693.97 941.189,2693.5 941.561,2693.15C941.707,2693.01 973.293,2665.85 973.293,2665.85C974.187,2665.08 975.497,2665.04 976.437,2665.75L1026.91,2704.03C1027.51,2704.49 1027.87,2705.19 1027.9,2705.95C1027.92,2706.7 1027.6,2707.43 1027.03,2707.92L995.503,2735.1C994.61,2735.87 993.3,2735.91 992.36,2735.19L960.827,2711.28L948.919,2721.55L979.598,2744.82C980.199,2745.27 980.562,2745.97 980.586,2746.73C980.61,2747.48 980.291,2748.21 979.72,2748.7L965.865,2760.64C965.763,2760.75 965.653,2760.84 965.537,2760.93ZM898.74,2736.72L901.275,2756.04L928.277,2732.75L925.743,2713.44L898.74,2736.72ZM945.048,2724.89L934.904,2733.64L963.968,2755.68L974.114,2746.93L945.048,2724.89ZM884.918,2746.83L896.147,2755.39L893.743,2737.07L882.52,2728.55L884.918,2746.83ZM1007.39,2718.24L978.32,2696.19L964.699,2707.94L993.77,2729.99L1007.39,2718.24ZM932.807,2728.84L940.974,2721.8L930.878,2714.14L932.807,2728.84ZM947.798,2715.91L956.754,2708.19L946.303,2700.26L947.798,2715.91ZM978.174,2673.35L980.572,2691.62L1011.27,2714.91L1021.43,2706.15L978.174,2673.35ZM947.372,2694.8L960.625,2704.85L975.573,2691.96L973.042,2672.67L947.372,2694.8Z" style="fill:white;"/>
            </g>
            <g transform="matrix(0.323277,0,0,0.378352,815.143,136.793)">
                <rect x="922.47" y="2637.81" width="35.017" height="185.089" style="fill:white;fill-rule:nonzero;"/>
                <path d="M1120.82,2750.61C1120.82,2755.61 1120.48,2760.12 1119.81,2764.12L1018.52,2764.12C1019.35,2774.12 1022.85,2781.96 1029.02,2787.63C1035.19,2793.3 1042.78,2796.13 1051.78,2796.13C1064.79,2796.13 1074.04,2790.55 1079.55,2779.37L1117.31,2779.37C1113.31,2792.71 1105.64,2803.68 1094.3,2812.26C1082.96,2820.85 1069.04,2825.15 1052.53,2825.15C1039.19,2825.15 1027.23,2822.19 1016.64,2816.27C1006.05,2810.35 997.798,2801.97 991.878,2791.13C985.959,2780.29 982.999,2767.78 982.999,2753.61C982.999,2739.27 985.917,2726.68 991.753,2715.84C997.589,2705.01 1005.76,2696.67 1016.26,2690.83C1026.77,2685 1038.86,2682.08 1052.53,2682.08C1065.7,2682.08 1077.5,2684.91 1087.92,2690.58C1098.35,2696.25 1106.43,2704.3 1112.19,2714.72C1117.94,2725.14 1120.82,2737.1 1120.82,2750.61ZM1084.55,2740.61C1084.38,2731.6 1081.13,2724.39 1074.79,2718.97C1068.46,2713.55 1060.7,2710.84 1051.53,2710.84C1042.86,2710.84 1035.57,2713.47 1029.65,2718.72C1023.73,2723.97 1020.1,2731.27 1018.77,2740.61L1084.55,2740.61Z" style="fill:white;fill-rule:nonzero;"/>
                <path d="M1188.6,2713.09L1188.6,2780.12C1188.6,2784.79 1189.72,2788.17 1191.97,2790.25C1194.23,2792.34 1198.02,2793.38 1203.35,2793.38L1219.61,2793.38L1219.61,2822.89L1197.6,2822.89C1168.09,2822.89 1153.33,2808.55 1153.33,2779.87L1153.33,2713.09L1136.82,2713.09L1136.82,2684.33L1153.33,2684.33L1153.33,2650.06L1188.6,2650.06L1188.6,2684.33L1219.61,2684.33L1219.61,2713.09L1188.6,2713.09Z" style="fill:white;fill-rule:nonzero;"/>
                <path d="M1266.88,2623.3L1263.88,2676.33L1240.12,2676.33L1236.87,2623.3L1266.88,2623.3Z" style="fill:white;fill-rule:nonzero;"/>
                <path d="M1346.67,2825.15C1335.33,2825.15 1325.16,2823.1 1316.16,2819.02C1307.15,2814.93 1300.03,2809.39 1294.77,2802.39C1289.52,2795.38 1286.64,2787.63 1286.14,2779.12L1321.41,2779.12C1322.08,2784.46 1324.7,2788.88 1329.29,2792.38C1333.88,2795.88 1339.59,2797.63 1346.42,2797.63C1353.09,2797.63 1358.3,2796.3 1362.06,2793.63C1365.81,2790.96 1367.68,2787.55 1367.68,2783.38C1367.68,2778.87 1365.39,2775.5 1360.81,2773.25C1356.22,2770.99 1348.92,2768.54 1338.92,2765.87C1328.58,2763.37 1320.12,2760.78 1313.53,2758.11C1306.95,2755.45 1301.28,2751.36 1296.52,2745.86C1291.77,2740.36 1289.4,2732.93 1289.4,2723.6C1289.4,2715.93 1291.61,2708.92 1296.02,2702.59C1300.44,2696.25 1306.78,2691.25 1315.03,2687.58C1323.29,2683.91 1333,2682.08 1344.17,2682.08C1360.68,2682.08 1373.85,2686.2 1383.69,2694.46C1393.53,2702.71 1398.95,2713.84 1399.95,2727.85L1366.43,2727.85C1365.93,2722.35 1363.64,2717.97 1359.55,2714.72C1355.47,2711.47 1350.01,2709.84 1343.17,2709.84C1336.84,2709.84 1331.96,2711.01 1328.54,2713.34C1325.12,2715.68 1323.41,2718.93 1323.41,2723.1C1323.41,2727.77 1325.75,2731.31 1330.41,2733.73C1335.08,2736.14 1342.34,2738.61 1352.18,2741.11C1362.18,2743.61 1370.43,2746.19 1376.94,2748.86C1383.44,2751.53 1389.07,2755.66 1393.82,2761.24C1398.57,2766.83 1401.03,2774.2 1401.2,2783.38C1401.2,2791.38 1398.99,2798.55 1394.57,2804.89C1390.15,2811.22 1383.82,2816.18 1375.56,2819.77C1367.31,2823.35 1357.68,2825.15 1346.67,2825.15Z" style="fill:white;fill-rule:nonzero;"/>
                <path d="M913.466,2989.58C913.466,2975.57 916.259,2963.15 921.845,2952.31C927.431,2941.47 935.018,2933.13 944.606,2927.3C954.194,2921.46 964.907,2918.54 976.746,2918.54C987.084,2918.54 996.13,2920.63 1003.88,2924.8C1011.64,2928.96 1017.85,2934.22 1022.52,2940.55L1022.52,2920.79L1057.79,2920.79L1057.79,3059.36L1022.52,3059.36L1022.52,3039.1C1018.02,3045.6 1011.8,3050.98 1003.88,3055.23C995.963,3059.49 986.834,3061.61 976.496,3061.61C964.824,3061.61 954.194,3058.61 944.606,3052.61C935.018,3046.6 927.431,3038.14 921.845,3027.22C916.259,3016.3 913.466,3003.75 913.466,2989.58ZM1022.52,2990.08C1022.52,2981.57 1020.85,2974.28 1017.51,2968.19C1014.18,2962.11 1009.68,2957.44 1004.01,2954.18C998.34,2950.93 992.253,2949.31 985.75,2949.31C979.247,2949.31 973.244,2950.89 967.742,2954.06C962.239,2957.23 957.779,2961.86 954.36,2967.94C950.942,2974.03 949.233,2981.24 949.233,2989.58C949.233,2997.91 950.942,3005.21 954.36,3011.46C957.779,3017.72 962.281,3022.51 967.867,3025.84C973.453,3029.18 979.414,3030.85 985.75,3030.85C992.253,3030.85 998.34,3029.22 1004.01,3025.97C1009.68,3022.72 1014.18,3018.05 1017.51,3011.96C1020.85,3005.88 1022.52,2998.58 1022.52,2990.08Z" style="fill:white;fill-rule:nonzero;"/>
                <path d="M1222.86,2920.79L1222.86,3059.36L1187.6,3059.36L1187.6,3041.85C1183.1,3047.86 1177.22,3052.57 1169.96,3055.98C1162.71,3059.4 1154.83,3061.11 1146.33,3061.11C1135.49,3061.11 1125.9,3058.82 1117.56,3054.23C1109.23,3049.65 1102.68,3042.89 1097.93,3033.97C1093.18,3025.05 1090.8,3014.42 1090.8,3002.08L1090.8,2920.79L1125.82,2920.79L1125.82,2997.08C1125.82,3008.09 1128.57,3016.55 1134.07,3022.47C1139.57,3028.39 1147.08,3031.35 1156.58,3031.35C1166.25,3031.35 1173.84,3028.39 1179.34,3022.47C1184.85,3016.55 1187.6,3008.09 1187.6,2997.08L1187.6,2920.79L1222.86,2920.79Z" style="fill:white;fill-rule:nonzero;"/>
                <path d="M1298.15,2949.56L1298.15,3016.59C1298.15,3021.26 1299.28,3024.64 1301.53,3026.72C1303.78,3028.8 1307.57,3029.85 1312.91,3029.85L1329.16,3029.85L1329.16,3059.36L1307.15,3059.36C1277.64,3059.36 1262.88,3045.02 1262.88,3016.34L1262.88,2949.56L1246.38,2949.56L1246.38,2920.79L1262.88,2920.79L1262.88,2886.53L1298.15,2886.53L1298.15,2920.79L1329.16,2920.79L1329.16,2949.56L1298.15,2949.56Z" style="fill:white;fill-rule:nonzero;"/>
                <path d="M1416.96,3061.61C1403.62,3061.61 1391.61,3058.65 1380.94,3052.73C1370.27,3046.81 1361.89,3038.43 1355.8,3027.6C1349.72,3016.76 1346.67,3004.25 1346.67,2990.08C1346.67,2975.9 1349.8,2963.4 1356.05,2952.56C1362.31,2941.72 1370.85,2933.34 1381.69,2927.42C1392.53,2921.5 1404.62,2918.54 1417.96,2918.54C1431.3,2918.54 1443.39,2921.5 1454.22,2927.42C1465.06,2933.34 1473.61,2941.72 1479.86,2952.56C1486.12,2963.4 1489.24,2975.9 1489.24,2990.08C1489.24,3004.25 1486.03,3016.76 1479.61,3027.6C1473.19,3038.43 1464.52,3046.81 1453.6,3052.73C1442.68,3058.65 1430.46,3061.61 1416.96,3061.61ZM1416.96,3031.1C1423.29,3031.1 1429.25,3029.55 1434.84,3026.47C1440.43,3023.39 1444.89,3018.76 1448.22,3012.59C1451.56,3006.42 1453.22,2998.91 1453.22,2990.08C1453.22,2976.9 1449.76,2966.77 1442.84,2959.69C1435.92,2952.6 1427.46,2949.06 1417.46,2949.06C1407.45,2949.06 1399.07,2952.6 1392.32,2959.69C1385.57,2966.77 1382.19,2976.9 1382.19,2990.08C1382.19,3003.25 1385.48,3013.38 1392.07,3020.47C1398.66,3027.55 1406.95,3031.1 1416.96,3031.1Z" style="fill:white;fill-rule:nonzero;"/>
                <path d="M1685.59,2918.79C1702.59,2918.79 1716.31,2924 1726.73,2934.43C1737.15,2944.85 1742.36,2959.4 1742.36,2978.07L1742.36,3059.36L1707.35,3059.36L1707.35,2982.82C1707.35,2971.99 1704.59,2963.69 1699.09,2957.94C1693.59,2952.18 1686.09,2949.31 1676.58,2949.31C1667.08,2949.31 1659.53,2952.18 1653.94,2957.94C1648.36,2963.69 1645.57,2971.99 1645.57,2982.82L1645.57,3059.36L1610.55,3059.36L1610.55,2982.82C1610.55,2971.99 1607.8,2963.69 1602.3,2957.94C1596.79,2952.18 1589.29,2949.31 1579.78,2949.31C1570.11,2949.31 1562.49,2952.18 1556.9,2957.94C1551.31,2963.69 1548.52,2971.99 1548.52,2982.82L1548.52,3059.36L1513.5,3059.36L1513.5,2920.79L1548.52,2920.79L1548.52,2937.55C1553.02,2931.72 1558.82,2927.13 1565.9,2923.8C1572.99,2920.46 1580.79,2918.79 1589.29,2918.79C1600.13,2918.79 1609.8,2921.09 1618.3,2925.67C1626.81,2930.26 1633.39,2936.8 1638.06,2945.31C1642.56,2937.3 1649.11,2930.88 1657.7,2926.05C1666.28,2921.21 1675.58,2918.79 1685.59,2918.79Z" style="fill:white;fill-rule:nonzero;"/>
                <path d="M1766.62,2989.58C1766.62,2975.57 1769.42,2963.15 1775,2952.31C1780.59,2941.47 1788.18,2933.13 1797.76,2927.3C1807.35,2921.46 1818.07,2918.54 1829.9,2918.54C1840.24,2918.54 1849.29,2920.63 1857.04,2924.8C1864.8,2928.96 1871.01,2934.22 1875.68,2940.55L1875.68,2920.79L1910.94,2920.79L1910.94,3059.36L1875.68,3059.36L1875.68,3039.1C1871.17,3045.6 1864.96,3050.98 1857.04,3055.23C1849.12,3059.49 1839.99,3061.61 1829.65,3061.61C1817.98,3061.61 1807.35,3058.61 1797.76,3052.61C1788.18,3046.6 1780.59,3038.14 1775,3027.22C1769.42,3016.3 1766.62,3003.75 1766.62,2989.58ZM1875.68,2990.08C1875.68,2981.57 1874.01,2974.28 1870.67,2968.19C1867.34,2962.11 1862.84,2957.44 1857.17,2954.18C1851.5,2950.93 1845.41,2949.31 1838.91,2949.31C1832.4,2949.31 1826.4,2950.89 1820.9,2954.06C1815.4,2957.23 1810.94,2961.86 1807.52,2967.94C1804.1,2974.03 1802.39,2981.24 1802.39,2989.58C1802.39,2997.91 1804.1,3005.21 1807.52,3011.46C1810.94,3017.72 1815.44,3022.51 1821.03,3025.84C1826.61,3029.18 1832.57,3030.85 1838.91,3030.85C1845.41,3030.85 1851.5,3029.22 1857.17,3025.97C1862.84,3022.72 1867.34,3018.05 1870.67,3011.96C1874.01,3005.88 1875.68,2998.58 1875.68,2990.08Z" style="fill:white;fill-rule:nonzero;"/>
                <path d="M1985.98,2949.56L1985.98,3016.59C1985.98,3021.26 1987.1,3024.64 1989.36,3026.72C1991.61,3028.8 1995.4,3029.85 2000.74,3029.85L2016.99,3029.85L2016.99,3059.36L1994.98,3059.36C1965.47,3059.36 1950.71,3045.02 1950.71,3016.34L1950.71,2949.56L1934.2,2949.56L1934.2,2920.79L1950.71,2920.79L1950.71,2886.53L1985.98,2886.53L1985.98,2920.79L2016.99,2920.79L2016.99,2949.56L1985.98,2949.56Z" style="fill:white;fill-rule:nonzero;"/>
                <path d="M2171.07,2987.08C2171.07,2992.08 2170.73,2996.58 2170.07,3000.58L2068.77,3000.58C2069.6,3010.59 2073.1,3018.42 2079.27,3024.09C2085.44,3029.76 2093.03,3032.6 2102.03,3032.6C2115.04,3032.6 2124.3,3027.01 2129.8,3015.84L2167.57,3015.84C2163.56,3029.18 2155.89,3040.14 2144.55,3048.73C2133.22,3057.32 2119.29,3061.61 2102.78,3061.61C2089.45,3061.61 2077.48,3058.65 2066.89,3052.73C2056.3,3046.81 2048.05,3038.43 2042.13,3027.6C2036.21,3016.76 2033.25,3004.25 2033.25,2990.08C2033.25,2975.74 2036.17,2963.15 2042.01,2952.31C2047.84,2941.47 2056.01,2933.13 2066.52,2927.3C2077.02,2921.46 2089.11,2918.54 2102.78,2918.54C2115.96,2918.54 2127.76,2921.38 2138.18,2927.05C2148.6,2932.72 2156.68,2940.76 2162.44,2951.18C2168.19,2961.61 2171.07,2973.57 2171.07,2987.08ZM2134.8,2977.07C2134.63,2968.07 2131.38,2960.86 2125.05,2955.43C2118.71,2950.02 2110.95,2947.31 2101.78,2947.31C2093.11,2947.31 2085.82,2949.93 2079.9,2955.18C2073.98,2960.44 2070.35,2967.73 2069.02,2977.07L2134.8,2977.07Z" style="fill:white;fill-rule:nonzero;"/>
            </g>
        </g>
        <g id="Layer-3" serif:id="Layer 3">
        </g>
        <g id="Layer-31" serif:id="Layer 3">
        </g>
        <g id="Layer-32" serif:id="Layer 3">
        </g>
    </g>
</svg>
